M48
;Layer_Color=6321
;FILE_FORMAT=2:4
INCH,LZ
;TYPE=PLATED
T1F00S00C0.0118
T2F00S00C0.0394
%
T01
X007337Y006863
X007812Y006862
X0087Y0061
X009617Y006117
X01055Y0059
X01025Y01105
X00925Y011057
X0114Y01105
X0126
X0138
X015
X0078Y01025
X007337Y010237
X01615Y011
X0173Y01105
X01845Y0111
X01945
X02045
X02135Y0103
X021863Y010287
Y006813
X021412Y006838
X02045Y00595
X019686Y005936
X0189Y00595
X017185Y005865
X0163Y00595
T02
X01385Y00675
X01485
M30
