G04 Layer_Color=20142*
%FSLAX24Y24*%
%MOIN*%
G70*
G01*
G75*
%ADD27R,0.0651X0.0612*%
%ADD28R,0.0680X0.0474*%
%ADD29R,0.0954X0.0564*%
%ADD30R,0.0564X0.0954*%
%ADD31R,0.1614X0.0571*%
%ADD32R,0.1457X0.0539*%
%ADD33R,0.0434X0.0395*%
G04:AMPARAMS|DCode=34|XSize=67.1mil|YSize=59.2mil|CornerRadius=6.6mil|HoleSize=0mil|Usage=FLASHONLY|Rotation=0.000|XOffset=0mil|YOffset=0mil|HoleType=Round|Shape=RoundedRectangle|*
%AMROUNDEDRECTD34*
21,1,0.0671,0.0461,0,0,0.0*
21,1,0.0539,0.0592,0,0,0.0*
1,1,0.0131,0.0270,-0.0230*
1,1,0.0131,-0.0270,-0.0230*
1,1,0.0131,-0.0270,0.0230*
1,1,0.0131,0.0270,0.0230*
%
%ADD34ROUNDEDRECTD34*%
%ADD35R,0.0867X0.0867*%
%ADD36C,0.0867*%
D27*
X18902Y7175D02*
D03*
X18902Y6525D02*
D03*
X8700Y7325D02*
D03*
X8700Y6675D02*
D03*
X8700Y8225D02*
D03*
X8700Y8875D02*
D03*
X11000Y8925D02*
D03*
X11000Y8275D02*
D03*
X19450Y8325D02*
D03*
X19450Y8975D02*
D03*
X9617Y6675D02*
D03*
X9617Y7325D02*
D03*
X19686Y6525D02*
D03*
X19686Y7175D02*
D03*
X16300Y6515D02*
D03*
X16300Y7165D02*
D03*
D28*
X17185Y7400D02*
D03*
X17185Y6300D02*
D03*
X10550Y7500D02*
D03*
X10550Y6400D02*
D03*
D29*
X17050Y9723D02*
D03*
X17050Y10577D02*
D03*
X15900Y9723D02*
D03*
X15900Y10577D02*
D03*
X14750Y9723D02*
D03*
X14750Y10577D02*
D03*
X13600Y9723D02*
D03*
X13600Y10577D02*
D03*
X12450Y9723D02*
D03*
X12450Y10577D02*
D03*
X11300Y9723D02*
D03*
X11300Y10577D02*
D03*
D30*
X17127Y8650D02*
D03*
X16273Y8650D02*
D03*
X15627Y8650D02*
D03*
X14773Y8650D02*
D03*
X14127Y8650D02*
D03*
X13273Y8650D02*
D03*
X12627Y8650D02*
D03*
X11773Y8650D02*
D03*
D31*
X7337Y9662D02*
D03*
X7337Y7438D02*
D03*
X21863Y7438D02*
D03*
X21863Y9662D02*
D03*
D32*
X7298Y8550D02*
D03*
X21902Y8550D02*
D03*
D33*
X9456Y8550D02*
D03*
X10244Y8924D02*
D03*
X10244Y8176D02*
D03*
X17806Y8650D02*
D03*
X18594Y9024D02*
D03*
X18594Y8276D02*
D03*
D34*
X9250Y10531D02*
D03*
X9250Y9783D02*
D03*
X10250Y10524D02*
D03*
X10250Y9776D02*
D03*
X11433Y7374D02*
D03*
X11433Y6626D02*
D03*
X18450Y10598D02*
D03*
X18450Y9850D02*
D03*
X19450Y10598D02*
D03*
X19450Y9850D02*
D03*
X18098Y7174D02*
D03*
X18098Y6426D02*
D03*
X20450Y10598D02*
D03*
X20450Y9850D02*
D03*
X20450Y9024D02*
D03*
X20450Y8276D02*
D03*
X20450Y6476D02*
D03*
X20450Y7224D02*
D03*
X12350Y7374D02*
D03*
X12350Y6626D02*
D03*
D35*
X14850Y6750D02*
D03*
D36*
X13850Y6750D02*
D03*
M02*
