G04 Layer_Color=13813960*
%FSLAX24Y24*%
%MOIN*%
G70*
G01*
G75*
%ADD26C,0.0061*%
D26*
X20000Y7894D02*
X20000Y7500D01*
X20000Y7697D01*
X19738Y7697D01*
X19738Y7894D01*
X19738Y7500D01*
X19541Y7762D02*
X19410Y7762D01*
X19344Y7697D01*
X19344Y7500D01*
X19541Y7500D01*
X19606Y7566D01*
X19541Y7631D01*
X19344Y7631D01*
X18950Y7762D02*
X19147Y7762D01*
X19213Y7697D01*
X19213Y7566D01*
X19147Y7500D01*
X18950Y7500D01*
X18819Y7500D02*
X18819Y7894D01*
X18819Y7631D02*
X18622Y7762D01*
X18819Y7631D02*
X18622Y7500D01*
X18229Y7500D02*
X18360Y7500D01*
X18426Y7566D01*
X18426Y7697D01*
X18360Y7762D01*
X18229Y7762D01*
X18163Y7697D01*
X18163Y7631D01*
X18426Y7631D01*
X18032Y7762D02*
X18032Y7500D01*
X18032Y7631D01*
X17967Y7697D01*
X17901Y7762D01*
X17835Y7762D01*
X17639Y7500D02*
X17442Y7500D01*
X17376Y7566D01*
X17442Y7631D01*
X17573Y7631D01*
X17639Y7697D01*
X17573Y7762D01*
X17376Y7762D01*
X17245Y7369D02*
X17245Y7762D01*
X17048Y7762D01*
X16983Y7697D01*
X16983Y7566D01*
X17048Y7500D01*
X17245Y7500D01*
X16786Y7762D02*
X16655Y7762D01*
X16589Y7697D01*
X16589Y7500D01*
X16786Y7500D01*
X16851Y7566D01*
X16786Y7631D01*
X16589Y7631D01*
X16195Y7762D02*
X16392Y7762D01*
X16458Y7697D01*
X16458Y7566D01*
X16392Y7500D01*
X16195Y7500D01*
X15867Y7500D02*
X15999Y7500D01*
X16064Y7566D01*
X16064Y7697D01*
X15999Y7762D01*
X15867Y7762D01*
X15802Y7697D01*
X15802Y7631D01*
X16064Y7631D01*
X15277Y7894D02*
X15277Y7500D01*
X15277Y7631D01*
X15015Y7894D01*
X15212Y7697D01*
X15015Y7500D01*
X14884Y7762D02*
X14884Y7500D01*
X14884Y7631D01*
X14818Y7697D01*
X14752Y7762D01*
X14687Y7762D01*
X14424Y7762D02*
X14293Y7762D01*
X14228Y7697D01*
X14228Y7500D01*
X14424Y7500D01*
X14490Y7566D01*
X14424Y7631D01*
X14228Y7631D01*
X14096Y7500D02*
X14096Y7894D01*
X14096Y7631D02*
X13900Y7762D01*
X14096Y7631D02*
X13900Y7500D01*
X13637Y7500D02*
X13506Y7500D01*
X13440Y7566D01*
X13440Y7697D01*
X13506Y7762D01*
X13637Y7762D01*
X13703Y7697D01*
X13703Y7566D01*
X13637Y7500D01*
X13309Y7762D02*
X13309Y7566D01*
X13244Y7500D01*
X13178Y7566D01*
X13112Y7500D01*
X13047Y7566D01*
X13047Y7762D01*
X19738Y8396D02*
X19934Y8396D01*
X20000Y8330D01*
X20000Y8199D01*
X19934Y8133D01*
X19738Y8133D01*
X19541Y8396D02*
X19410Y8396D01*
X19344Y8330D01*
X19344Y8133D01*
X19541Y8133D01*
X19606Y8199D01*
X19541Y8265D01*
X19344Y8265D01*
X19213Y8133D02*
X19213Y8396D01*
X19016Y8396D01*
X18950Y8330D01*
X18950Y8133D01*
X18819Y8133D02*
X18688Y8133D01*
X18754Y8133D01*
X18754Y8396D01*
X18819Y8396D01*
X18491Y8133D02*
X18295Y8133D01*
X18229Y8199D01*
X18295Y8265D01*
X18426Y8265D01*
X18491Y8330D01*
X18426Y8396D01*
X18229Y8396D01*
X18098Y8068D02*
X17835Y8068D01*
X17704Y8133D02*
X17573Y8133D01*
X17639Y8133D01*
X17639Y8527D01*
X17704Y8527D01*
X17376Y8396D02*
X17376Y8199D01*
X17311Y8133D01*
X17114Y8133D01*
X17114Y8396D01*
X16983Y8002D02*
X16983Y8396D01*
X16786Y8396D01*
X16720Y8330D01*
X16720Y8199D01*
X16786Y8133D01*
X16983Y8133D01*
X16589Y8396D02*
X16589Y8199D01*
X16523Y8133D01*
X16327Y8133D01*
X16327Y8396D01*
X16195Y8133D02*
X15999Y8133D01*
X15933Y8199D01*
X15999Y8265D01*
X16130Y8265D01*
X16195Y8330D01*
X16130Y8396D01*
X15933Y8396D01*
X20000Y8767D02*
X20000Y9160D01*
X19803Y9160D01*
X19738Y9095D01*
X19738Y8963D01*
X19803Y8898D01*
X20000Y8898D01*
X19344Y9095D02*
X19410Y9160D01*
X19541Y9160D01*
X19606Y9095D01*
X19606Y8832D01*
X19541Y8767D01*
X19410Y8767D01*
X19344Y8832D01*
X19213Y9160D02*
X19213Y8767D01*
X19016Y8767D01*
X18950Y8832D01*
X18950Y8898D01*
X19016Y8963D01*
X19213Y8963D01*
X19016Y8963D01*
X18950Y9029D01*
X18950Y9095D01*
X19016Y9160D01*
X19213Y9160D01*
X18426Y9160D02*
X18426Y8767D01*
X18229Y8767D01*
X18163Y8832D01*
X18163Y9095D01*
X18229Y9160D01*
X18426Y9160D01*
X17835Y8767D02*
X17967Y8767D01*
X18032Y8832D01*
X18032Y8963D01*
X17967Y9029D01*
X17835Y9029D01*
X17770Y8963D01*
X17770Y8898D01*
X18032Y8898D01*
X17639Y8767D02*
X17442Y8767D01*
X17376Y8832D01*
X17442Y8898D01*
X17573Y8898D01*
X17639Y8963D01*
X17573Y9029D01*
X17376Y9029D01*
X17245Y8767D02*
X17114Y8767D01*
X17179Y8767D01*
X17179Y9029D01*
X17245Y9029D01*
X16786Y8635D02*
X16720Y8635D01*
X16655Y8701D01*
X16655Y9029D01*
X16851Y9029D01*
X16917Y8963D01*
X16917Y8832D01*
X16851Y8767D01*
X16655Y8767D01*
X16523Y8767D02*
X16523Y9029D01*
X16327Y9029D01*
X16261Y8963D01*
X16261Y8767D01*
X15736Y9160D02*
X15736Y8767D01*
X15539Y8767D01*
X15474Y8832D01*
X15474Y8898D01*
X15474Y8963D01*
X15539Y9029D01*
X15736Y9029D01*
X15343Y9029D02*
X15343Y8832D01*
X15277Y8767D01*
X15080Y8767D01*
X15080Y8701D01*
X15146Y8635D01*
X15212Y8635D01*
X15080Y8767D02*
X15080Y9029D01*
X20000Y9794D02*
X19869Y9794D01*
X19934Y9794D01*
X19934Y9400D01*
X20000Y9400D01*
X19869Y9400D01*
X19672Y9400D02*
X19672Y9662D01*
X19475Y9662D01*
X19410Y9597D01*
X19410Y9400D01*
X19213Y9728D02*
X19213Y9662D01*
X19278Y9662D01*
X19147Y9662D01*
X19213Y9662D01*
X19213Y9466D01*
X19147Y9400D01*
X18754Y9400D02*
X18885Y9400D01*
X18950Y9466D01*
X18950Y9597D01*
X18885Y9662D01*
X18754Y9662D01*
X18688Y9597D01*
X18688Y9531D01*
X18950Y9531D01*
X18557Y9662D02*
X18557Y9400D01*
X18557Y9531D01*
X18491Y9597D01*
X18426Y9662D01*
X18360Y9662D01*
X18163Y9400D02*
X18163Y9662D01*
X18098Y9662D01*
X18032Y9597D01*
X18032Y9400D01*
X18032Y9597D01*
X17967Y9662D01*
X17901Y9597D01*
X17901Y9400D01*
X17573Y9400D02*
X17704Y9400D01*
X17770Y9466D01*
X17770Y9597D01*
X17704Y9662D01*
X17573Y9662D01*
X17507Y9597D01*
X17507Y9531D01*
X17770Y9531D01*
X17114Y9794D02*
X17114Y9400D01*
X17311Y9400D01*
X17376Y9466D01*
X17376Y9597D01*
X17311Y9662D01*
X17114Y9662D01*
X16983Y9400D02*
X16851Y9400D01*
X16917Y9400D01*
X16917Y9662D01*
X16983Y9662D01*
X16589Y9662D02*
X16458Y9662D01*
X16392Y9597D01*
X16392Y9400D01*
X16589Y9400D01*
X16655Y9466D01*
X16589Y9531D01*
X16392Y9531D01*
X16195Y9728D02*
X16195Y9662D01*
X16261Y9662D01*
X16130Y9662D01*
X16195Y9662D01*
X16195Y9466D01*
X16130Y9400D01*
X15736Y9400D02*
X15867Y9400D01*
X15933Y9466D01*
X15933Y9597D01*
X15867Y9662D01*
X15736Y9662D01*
X15671Y9597D01*
X15671Y9531D01*
X15933Y9531D01*
X15080Y9400D02*
X15080Y9728D01*
X15080Y9597D01*
X15146Y9597D01*
X15015Y9597D01*
X15080Y9597D01*
X15080Y9728D01*
X15015Y9794D01*
X14818Y9662D02*
X14818Y9400D01*
X14818Y9531D01*
X14752Y9597D01*
X14687Y9662D01*
X14621Y9662D01*
X14228Y9400D02*
X14359Y9400D01*
X14424Y9466D01*
X14424Y9597D01*
X14359Y9662D01*
X14228Y9662D01*
X14162Y9597D01*
X14162Y9531D01*
X14424Y9531D01*
X13768Y9269D02*
X13768Y9662D01*
X13965Y9662D01*
X14031Y9597D01*
X14031Y9466D01*
X13965Y9400D01*
X13768Y9400D01*
X13637Y9662D02*
X13637Y9466D01*
X13572Y9400D01*
X13375Y9400D01*
X13375Y9662D01*
X13047Y9400D02*
X13178Y9400D01*
X13244Y9466D01*
X13244Y9597D01*
X13178Y9662D01*
X13047Y9662D01*
X12981Y9597D01*
X12981Y9531D01*
X13244Y9531D01*
X12850Y9400D02*
X12850Y9662D01*
X12653Y9662D01*
X12588Y9597D01*
X12588Y9400D01*
X12194Y9662D02*
X12391Y9662D01*
X12457Y9597D01*
X12457Y9466D01*
X12391Y9400D01*
X12194Y9400D01*
X12063Y9662D02*
X12063Y9466D01*
X11997Y9400D01*
X11801Y9400D01*
X11801Y9334D01*
X11866Y9269D01*
X11932Y9269D01*
X11801Y9400D02*
X11801Y9662D01*
X11276Y9794D02*
X11276Y9400D01*
X11079Y9400D01*
X11013Y9466D01*
X11013Y9531D01*
X11013Y9597D01*
X11079Y9662D01*
X11276Y9662D01*
X10882Y9662D02*
X10882Y9466D01*
X10817Y9400D01*
X10620Y9400D01*
X10620Y9662D01*
X10423Y9400D02*
X10423Y9728D01*
X10423Y9597D01*
X10489Y9597D01*
X10357Y9597D01*
X10423Y9597D01*
X10423Y9728D01*
X10357Y9794D01*
X10095Y9400D02*
X10095Y9728D01*
X10095Y9597D01*
X10161Y9597D01*
X10029Y9597D01*
X10095Y9597D01*
X10095Y9728D01*
X10029Y9794D01*
X9636Y9400D02*
X9767Y9400D01*
X9833Y9466D01*
X9833Y9597D01*
X9767Y9662D01*
X9636Y9662D01*
X9570Y9597D01*
X9570Y9531D01*
X9833Y9531D01*
X9439Y9662D02*
X9439Y9400D01*
X9439Y9531D01*
X9373Y9597D01*
X9308Y9662D01*
X9242Y9662D01*
M02*
