G04 Layer_Physical_Order=1*
G04 Layer_Color=25308*
%FSLAX24Y24*%
%MOIN*%
G70*
G01*
G75*
%ADD10R,0.0571X0.0532*%
%ADD11R,0.0600X0.0394*%
%ADD12R,0.0874X0.0484*%
%ADD13R,0.0484X0.0874*%
%ADD14R,0.1575X0.0532*%
%ADD15R,0.1417X0.0500*%
%ADD16R,0.0354X0.0315*%
G04:AMPARAMS|DCode=17|XSize=59.1mil|YSize=51.2mil|CornerRadius=2.6mil|HoleSize=0mil|Usage=FLASHONLY|Rotation=0.000|XOffset=0mil|YOffset=0mil|HoleType=Round|Shape=RoundedRectangle|*
%AMROUNDEDRECTD17*
21,1,0.0591,0.0461,0,0,0.0*
21,1,0.0539,0.0512,0,0,0.0*
1,1,0.0051,0.0270,-0.0230*
1,1,0.0051,-0.0270,-0.0230*
1,1,0.0051,-0.0270,0.0230*
1,1,0.0051,0.0270,0.0230*
%
%ADD17ROUNDEDRECTD17*%
%ADD18C,0.0200*%
%ADD19C,0.0100*%
%ADD20R,0.0787X0.0787*%
%ADD21C,0.0787*%
%ADD22C,0.0320*%
D10*
X18902Y7175D02*
D03*
X18902Y6525D02*
D03*
X8700Y7325D02*
D03*
X8700Y6675D02*
D03*
X8700Y8225D02*
D03*
X8700Y8875D02*
D03*
X11000Y8925D02*
D03*
X11000Y8275D02*
D03*
X19450Y8325D02*
D03*
X19450Y8975D02*
D03*
X9617Y6675D02*
D03*
X9617Y7325D02*
D03*
X19686Y6525D02*
D03*
X19686Y7175D02*
D03*
X16300Y6515D02*
D03*
X16300Y7165D02*
D03*
D11*
X17185Y7400D02*
D03*
X17185Y6300D02*
D03*
X10550Y7500D02*
D03*
X10550Y6400D02*
D03*
D12*
X17050Y9723D02*
D03*
X17050Y10577D02*
D03*
X15900Y9723D02*
D03*
X15900Y10577D02*
D03*
X14750Y9723D02*
D03*
X14750Y10577D02*
D03*
X13600Y9723D02*
D03*
X13600Y10577D02*
D03*
X12450Y9723D02*
D03*
X12450Y10577D02*
D03*
X11300Y9723D02*
D03*
X11300Y10577D02*
D03*
D13*
X17127Y8650D02*
D03*
X16273Y8650D02*
D03*
X15627Y8650D02*
D03*
X14773Y8650D02*
D03*
X14127Y8650D02*
D03*
X13273Y8650D02*
D03*
X12627Y8650D02*
D03*
X11773Y8650D02*
D03*
D14*
X7337Y9662D02*
D03*
X7337Y7438D02*
D03*
X21863Y7438D02*
D03*
X21863Y9662D02*
D03*
D15*
X7298Y8550D02*
D03*
X21902Y8550D02*
D03*
D16*
X9456Y8550D02*
D03*
X10244Y8924D02*
D03*
X10244Y8176D02*
D03*
X17806Y8650D02*
D03*
X18594Y9024D02*
D03*
X18594Y8276D02*
D03*
D17*
X9250Y10531D02*
D03*
X9250Y9783D02*
D03*
X10250Y10524D02*
D03*
X10250Y9776D02*
D03*
X11433Y7374D02*
D03*
X11433Y6626D02*
D03*
X18450Y10598D02*
D03*
X18450Y9850D02*
D03*
X19450Y10598D02*
D03*
X19450Y9850D02*
D03*
X18098Y7174D02*
D03*
X18098Y6426D02*
D03*
X20450Y10598D02*
D03*
X20450Y9850D02*
D03*
X20450Y9024D02*
D03*
X20450Y8276D02*
D03*
X20450Y6476D02*
D03*
X20450Y7224D02*
D03*
X12350Y7374D02*
D03*
X12350Y6626D02*
D03*
D18*
X10550Y7100D02*
X10550Y7500D01*
X10550Y7100D02*
X10700Y6950D01*
X10900Y6950D01*
X11224Y6626D01*
X11433Y6626D01*
X12350Y6626D02*
X12976Y6626D01*
X13100Y6750D01*
X13850Y6750D01*
X7812Y6862D02*
X7812Y7438D01*
X7337Y7438D02*
X7812Y7438D01*
X7337Y6863D02*
X7337Y7438D01*
X7175Y9650D02*
X7650Y9650D01*
X7800Y9700D02*
X7800Y10250D01*
X7676Y9700D02*
X7800Y9700D01*
X7638Y9662D02*
X7676Y9700D01*
X7337Y9662D02*
X7638Y9662D01*
X7337Y9662D02*
X7337Y10237D01*
X10250Y10524D02*
X10250Y11050D01*
X11400Y10577D02*
X11400Y11050D01*
X11400Y9723D02*
X11723Y9400D01*
X7137Y9612D02*
X7175Y9650D01*
X21350Y9700D02*
X21350Y10300D01*
X21350Y9700D02*
X21825Y9700D01*
X21863Y9662D01*
X21412Y6838D02*
X21412Y7438D01*
X21863Y7438D01*
X21863Y6813D02*
X21863Y7438D01*
X21863Y9662D02*
X21863Y10287D01*
X20450Y10598D02*
X20450Y11100D01*
X19450Y10598D02*
X19450Y11100D01*
X18450Y10598D02*
X18450Y11100D01*
X12600Y10577D02*
X12600Y11050D01*
X17300Y10577D02*
X17300Y11050D01*
X16150Y10577D02*
X16150Y11000D01*
X15000Y10577D02*
X15000Y11050D01*
X13800Y10577D02*
X13800Y11050D01*
X9250Y10531D02*
X9250Y11057D01*
X16300Y5950D02*
X16300Y6475D01*
X17300Y9723D02*
X18323Y9723D01*
X20450Y9024D02*
X20450Y9850D01*
X19401Y9024D02*
X19450Y8975D01*
X19450Y9073D02*
X19450Y9850D01*
X17127Y8650D02*
X17806Y8650D01*
X15627Y8650D02*
X16273Y8650D01*
X14127Y8650D02*
X14773Y8650D01*
X12627Y8650D02*
X13273Y8650D01*
X20450Y7174D02*
X20450Y8276D01*
X16150Y9723D02*
X17300Y9723D01*
X17127Y8650D02*
X17127Y9550D01*
X14127Y8650D02*
X14127Y9273D01*
X13800Y9600D02*
X14127Y9273D01*
X13800Y9600D02*
X13800Y9723D01*
X12600Y8677D02*
X12600Y9723D01*
X18594Y9024D02*
X19401Y9024D01*
X21776Y8676D02*
X21902Y8550D01*
X19450Y8325D02*
X19825Y8325D01*
X19950Y8450D01*
X19950Y8850D01*
X20124Y9024D01*
X20450Y9024D01*
X9250Y9657D02*
X9250Y9783D01*
X10250Y8930D02*
X10250Y9776D01*
X10256Y8925D02*
X11000Y8925D01*
X11000Y8275D02*
X11398Y8275D01*
X11723Y8600D01*
X11773Y8650D01*
X11723Y8600D02*
X11723Y9400D01*
X20450Y8276D02*
X20724Y8550D01*
X21902Y8550D01*
X8375Y8225D02*
X8700Y8225D01*
X8050Y8550D02*
X8375Y8225D01*
X7298Y8550D02*
X8050Y8550D01*
X9156Y8850D02*
X9456Y8550D01*
X8725Y8850D02*
X9156Y8850D01*
X8700Y8875D02*
X8725Y8850D01*
X8700Y8875D02*
X8700Y9233D01*
X9250Y9783D01*
X15627Y8650D02*
X15627Y8796D01*
X14700Y9723D02*
X15627Y8796D01*
X18079Y6426D02*
X18098Y6426D01*
X18150Y6426D01*
X8700Y7325D02*
X9617Y7325D01*
X9975Y7325D01*
X10150Y7500D01*
X10488Y7500D01*
X10244Y8176D02*
X10550Y7870D01*
X10550Y7500D02*
X10550Y7870D01*
X11433Y7374D02*
X12350Y7374D01*
X8700Y6100D02*
X8700Y6675D01*
X9617Y6117D02*
X9617Y6675D01*
X10550Y5900D02*
X10550Y6400D01*
X17185Y5865D02*
X17185Y6300D01*
X18900Y5950D02*
X18900Y6525D01*
X19686Y5936D02*
X19686Y6525D01*
X20450Y5950D02*
X20450Y6476D01*
X12350Y7374D02*
X12724Y7374D01*
X13200Y7850D01*
X15615Y7850D01*
X16300Y7165D01*
X16535Y7165D01*
X16900Y6800D01*
X17650Y6800D01*
X18024Y6426D01*
X17185Y7400D02*
X17500Y7400D01*
X17726Y7174D01*
X18098Y7174D01*
X18594Y8056D02*
X18594Y8276D01*
X18594Y8056D02*
X18902Y7748D01*
X18902Y7174D02*
X18902Y7175D01*
X18902Y7748D01*
X18098Y7174D02*
X18902Y7174D01*
X19685Y7174D01*
D19*
X18594Y9024D02*
X18643Y8975D01*
D20*
X14850Y6750D02*
D03*
D21*
X13850Y6750D02*
D03*
D22*
X7812Y6862D02*
D03*
X7337Y6863D02*
D03*
X7800Y10250D02*
D03*
X7337Y10237D02*
D03*
X10250Y11050D02*
D03*
X11400Y11050D02*
D03*
X21350Y10300D02*
D03*
X21412Y6838D02*
D03*
X21863Y6813D02*
D03*
X21863Y10287D02*
D03*
X20450Y11100D02*
D03*
X19450Y11100D02*
D03*
X18450Y11100D02*
D03*
X12600Y11050D02*
D03*
X17300Y11050D02*
D03*
X16150Y11000D02*
D03*
X15000Y11050D02*
D03*
X13800Y11050D02*
D03*
X9250Y11057D02*
D03*
X16300Y5950D02*
D03*
X8700Y6100D02*
D03*
X9617Y6117D02*
D03*
X10550Y5900D02*
D03*
X17185Y5865D02*
D03*
X18900Y5950D02*
D03*
X19686Y5936D02*
D03*
X20450Y5950D02*
D03*
M02*
