G04 Layer_Color=7318015*
%FSLAX24Y24*%
%MOIN*%
G70*
G01*
G75*
%ADD10R,0.0571X0.0532*%
%ADD11R,0.0600X0.0394*%
%ADD12R,0.0874X0.0484*%
%ADD13R,0.0484X0.0874*%
%ADD14R,0.1575X0.0532*%
%ADD15R,0.1417X0.0500*%
%ADD16R,0.0354X0.0315*%
G04:AMPARAMS|DCode=17|XSize=59.1mil|YSize=51.2mil|CornerRadius=2.6mil|HoleSize=0mil|Usage=FLASHONLY|Rotation=0.000|XOffset=0mil|YOffset=0mil|HoleType=Round|Shape=RoundedRectangle|*
%AMROUNDEDRECTD17*
21,1,0.0591,0.0461,0,0,0.0*
21,1,0.0539,0.0512,0,0,0.0*
1,1,0.0051,0.0270,-0.0230*
1,1,0.0051,-0.0270,-0.0230*
1,1,0.0051,-0.0270,0.0230*
1,1,0.0051,0.0270,0.0230*
%
%ADD17ROUNDEDRECTD17*%
D10*
X18902Y7175D02*
D03*
X18902Y6525D02*
D03*
X8700Y7325D02*
D03*
X8700Y6675D02*
D03*
X8700Y8225D02*
D03*
X8700Y8875D02*
D03*
X11000Y8925D02*
D03*
X11000Y8275D02*
D03*
X19450Y8325D02*
D03*
X19450Y8975D02*
D03*
X9617Y6675D02*
D03*
X9617Y7325D02*
D03*
X19686Y6525D02*
D03*
X19686Y7175D02*
D03*
X16300Y6515D02*
D03*
X16300Y7165D02*
D03*
D11*
X17185Y7400D02*
D03*
X17185Y6300D02*
D03*
X10550Y7500D02*
D03*
X10550Y6400D02*
D03*
D12*
X17050Y9723D02*
D03*
X17050Y10577D02*
D03*
X15900Y9723D02*
D03*
X15900Y10577D02*
D03*
X14750Y9723D02*
D03*
X14750Y10577D02*
D03*
X13600Y9723D02*
D03*
X13600Y10577D02*
D03*
X12450Y9723D02*
D03*
X12450Y10577D02*
D03*
X11300Y9723D02*
D03*
X11300Y10577D02*
D03*
D13*
X17127Y8650D02*
D03*
X16273Y8650D02*
D03*
X15627Y8650D02*
D03*
X14773Y8650D02*
D03*
X14127Y8650D02*
D03*
X13273Y8650D02*
D03*
X12627Y8650D02*
D03*
X11773Y8650D02*
D03*
D14*
X7337Y9662D02*
D03*
X7337Y7438D02*
D03*
X21863Y7438D02*
D03*
X21863Y9662D02*
D03*
D15*
X7298Y8550D02*
D03*
X21902Y8550D02*
D03*
D16*
X9456Y8550D02*
D03*
X10244Y8924D02*
D03*
X10244Y8176D02*
D03*
X17806Y8650D02*
D03*
X18594Y9024D02*
D03*
X18594Y8276D02*
D03*
D17*
X9250Y10531D02*
D03*
X9250Y9783D02*
D03*
X10250Y10524D02*
D03*
X10250Y9776D02*
D03*
X11433Y7374D02*
D03*
X11433Y6626D02*
D03*
X18450Y10598D02*
D03*
X18450Y9850D02*
D03*
X19450Y10598D02*
D03*
X19450Y9850D02*
D03*
X18098Y7174D02*
D03*
X18098Y6426D02*
D03*
X20450Y10598D02*
D03*
X20450Y9850D02*
D03*
X20450Y9024D02*
D03*
X20450Y8276D02*
D03*
X20450Y6476D02*
D03*
X20450Y7224D02*
D03*
X12350Y7374D02*
D03*
X12350Y6626D02*
D03*
M02*
